<svg width="70" height="70" viewBox="0 0 70 70" fill="none" xmlns="http://www.w3.org/2000/svg">
<g id="arcticons:biota">
<g id="Group">
<path id="Vector" d="M14.6621 56.1648C14.6669 57.5542 15.1964 58.8904 16.1445 59.906C17.0927 60.9215 18.3896 61.5413 19.7753 61.6412C21.1611 61.7412 22.5335 61.3139 23.6176 60.4449C24.7016 59.576 25.4174 58.3295 25.6215 56.9552C34.0827 63.6285 46.2569 62.774 53.6871 54.9194C61.1902 46.9904 61.3098 34.6165 53.9642 26.5417C46.6186 18.4669 34.2898 17.4213 25.6871 24.1413L25.6813 13.1396C25.6813 11.6784 25.1008 10.277 24.0676 9.24372C23.0343 8.21048 21.6329 7.63 20.1717 7.63C18.7105 7.63 17.3091 8.21048 16.2758 9.24372C15.2426 10.277 14.6621 11.6784 14.6621 13.1396V56.1648Z" stroke="white" stroke-width="1.875" stroke-linecap="round" stroke-linejoin="round"/>
<path id="Vector_2" d="M27.7345 10.3133C27.7345 10.3133 26.6597 9.03584 27.2139 7.11959C27.7681 5.20334 30.0868 4.80084 30.0868 4.80084C30.0868 4.80084 30.676 5.33751 30.6264 6.58147C31.6516 6.53188 32.6097 6.09438 34.1395 7.06855C34.0375 8.22938 31.8529 11.9598 27.7345 10.3133Z" stroke="white" stroke-width="1.875" stroke-linecap="round" stroke-linejoin="round"/>
<path id="Vector_3" d="M38.8296 55.3088C46.9627 55.3088 53.5558 48.7156 53.5558 40.5825C53.5558 32.4494 46.9627 25.8563 38.8296 25.8563C30.6965 25.8563 24.1033 32.4494 24.1033 40.5825C24.1033 48.7156 30.6965 55.3088 38.8296 55.3088Z" stroke="white" stroke-width="1.875" stroke-linecap="round" stroke-linejoin="round"/>
<path id="Vector_4" d="M32.1285 37.5842C33.0925 39.2233 33.094 41.0594 32.1315 41.6865C31.169 42.3135 29.6042 41.4925 28.6402 39.8548C27.6762 38.2156 27.6748 36.3781 28.6373 35.751C29.5998 35.124 31.1646 35.945 32.1285 37.5842ZM37.3523 32.9817C37.8131 35.0321 37.1787 36.9629 35.9377 37.2925C34.6952 37.6221 33.3156 36.2279 32.8548 34.1775C32.394 32.1271 33.0283 30.1962 34.2694 29.8667C35.5119 29.5371 36.8915 30.9312 37.3523 32.9817ZM38.4621 39.2277C38.0042 39.2292 37.87 39.4406 37.5083 39.7206C37.31 39.881 32.884 44.0227 32.884 44.0227C32.884 44.0227 29.0821 47.8815 32.3575 50.5458C35.6315 53.2102 38.939 49.6475 38.939 49.6475C38.939 49.6475 42.245 53.2102 45.5204 50.5458C48.7944 47.8815 44.9954 44.0227 44.9954 44.0227C44.9954 44.0227 40.5679 39.881 40.3696 39.7206C40.0035 39.3487 39.8373 39.2744 39.4158 39.2277H38.4621ZM45.0479 37.5842C44.084 39.2233 44.0825 41.0594 45.045 41.6865C46.0075 42.3135 47.5723 41.4925 48.5362 39.8548C49.5002 38.2156 49.5017 36.3781 48.5392 35.751C47.5767 35.124 46.0133 35.945 45.0479 37.5842ZM39.7921 32.9817C39.3312 35.0321 39.9642 36.9629 41.2067 37.2925C42.4477 37.6221 43.8287 36.2279 44.2881 34.1775C44.749 32.1271 44.116 30.1962 42.8735 29.8667C41.6325 29.5371 40.2515 30.9312 39.7921 32.9817Z" stroke="white" stroke-width="1.875" stroke-linecap="round" stroke-linejoin="round"/>
</g>
</g>
</svg>
