<svg width="70" height="70" viewBox="0 0 70 70" fill="none" xmlns="http://www.w3.org/2000/svg">
<g id="arcticons:biota">
<g id="Group">
<path id="Vector" d="M14.6621 56.1647C14.6669 57.554 15.1964 58.8903 16.1445 59.9058C17.0927 60.9214 18.3896 61.5412 19.7753 61.6411C21.1611 61.7411 22.5335 61.3138 23.6176 60.4448C24.7016 59.5759 25.4174 58.3294 25.6215 56.9551C34.0827 63.6284 46.2569 62.7738 53.6871 54.9193C61.1902 46.9903 61.3098 34.6163 53.9642 26.5416C46.6186 18.4668 34.2898 17.4211 25.6871 24.1411L25.6813 13.1395C25.6813 11.6782 25.1008 10.2768 24.0676 9.2436C23.0343 8.21035 21.6329 7.62988 20.1717 7.62988C18.7105 7.62988 17.3091 8.21035 16.2758 9.2436C15.2426 10.2768 14.6621 11.6782 14.6621 13.1395V56.1647Z" stroke="black" stroke-width="1.875" stroke-linecap="round" stroke-linejoin="round"/>
<path id="Vector_2" d="M27.7345 10.3133C27.7345 10.3133 26.6597 9.03578 27.2139 7.11953C27.7681 5.20328 30.0868 4.80078 30.0868 4.80078C30.0868 4.80078 30.676 5.33745 30.6264 6.58141C31.6516 6.53182 32.6097 6.09432 34.1395 7.06849C34.0375 8.22932 31.8529 11.9597 27.7345 10.3133Z" stroke="black" stroke-width="1.875" stroke-linecap="round" stroke-linejoin="round"/>
<path id="Vector_3" d="M38.8295 55.3087C46.9626 55.3087 53.5558 48.7155 53.5558 40.5824C53.5558 32.4494 46.9626 25.8562 38.8295 25.8562C30.6964 25.8562 24.1033 32.4494 24.1033 40.5824C24.1033 48.7155 30.6964 55.3087 38.8295 55.3087Z" stroke="black" stroke-width="1.875" stroke-linecap="round" stroke-linejoin="round"/>
<path id="Vector_4" d="M32.1285 37.5841C33.0924 39.2233 33.0939 41.0593 32.1314 41.6864C31.1689 42.3135 29.6041 41.4924 28.6401 39.8547C27.6762 38.2156 27.6747 36.3781 28.6372 35.751C29.5997 35.1239 31.1645 35.9449 32.1285 37.5841ZM37.3522 32.9816C37.8131 35.032 37.1787 36.9629 35.9376 37.2924C34.6951 37.622 33.3156 36.2279 32.8547 34.1774C32.3939 32.127 33.0283 30.1962 34.2693 29.8666C35.5118 29.537 36.8914 30.9312 37.3522 32.9816ZM38.462 39.2276C38.0041 39.2291 37.8699 39.4406 37.5083 39.7206C37.3099 39.881 32.8839 44.0226 32.8839 44.0226C32.8839 44.0226 29.082 47.8814 32.3574 50.5458C35.6314 53.2101 38.9389 49.6474 38.9389 49.6474C38.9389 49.6474 42.2449 53.2101 45.5203 50.5458C48.7943 47.8814 44.9953 44.0226 44.9953 44.0226C44.9953 44.0226 40.5678 39.881 40.3695 39.7206C40.0035 39.3487 39.8372 39.2743 39.4158 39.2276H38.462ZM45.0478 37.5841C44.0839 39.2233 44.0824 41.0593 45.0449 41.6864C46.0074 42.3135 47.5722 41.4924 48.5362 39.8547C49.5001 38.2156 49.5016 36.3781 48.5391 35.751C47.5766 35.1239 46.0133 35.9449 45.0478 37.5841ZM39.792 32.9816C39.3312 35.032 39.9641 36.9629 41.2066 37.2924C42.4476 37.622 43.8287 36.2279 44.2881 34.1774C44.7489 32.127 44.116 30.1962 42.8735 29.8666C41.6324 29.537 40.2514 30.9312 39.792 32.9816Z" stroke="black" stroke-width="1.875" stroke-linecap="round" stroke-linejoin="round"/>
</g>
</g>
</svg>
