<svg width="21" height="21" viewBox="0 0 21 21" fill="none" xmlns="http://www.w3.org/2000/svg">
<path id="Vector" d="M10.375 0.375C4.85048 0.375 0.375 4.85113 0.375 10.375C0.375 15.8989 4.85113 20.375 10.375 20.375C15.8995 20.375 20.375 15.8989 20.375 10.375C20.375 4.85113 15.8989 0.375 10.375 0.375ZM15.2866 7.22597L13.6453 14.9602C13.524 15.5085 13.1976 15.6415 12.7421 15.3834L10.2421 13.5408L9.03629 14.7021C8.90339 14.835 8.79048 14.9479 8.53242 14.9479L8.70984 12.4034L13.3427 8.21758C13.5447 8.04016 13.2982 7.93952 13.0318 8.11694L7.30597 11.7215L4.83823 10.9511C4.3021 10.7821 4.28984 10.415 4.95113 10.1569L14.5924 6.43887C15.0402 6.27758 15.4311 6.5479 15.286 7.22532L15.2866 7.22597Z" fill="white"/>
</svg>
